<?xml version="1.0" encoding="UTF-8" standalone="no"?>
<!-- Created with Inkscape (http://www.inkscape.org/) -->

<svg
   width="210mm"
   height="297mm"
   viewBox="0 0 210 297"
   version="1.1"
   id="svg5"
   sodipodi:docname="qr-code.svg"
   inkscape:version="1.1.2 (b8e25be833, 2022-02-05)"
   xmlns:inkscape="http://www.inkscape.org/namespaces/inkscape"
   xmlns:sodipodi="http://sodipodi.sourceforge.net/DTD/sodipodi-0.dtd"
   xmlns="http://www.w3.org/2000/svg"
   xmlns:svg="http://www.w3.org/2000/svg">
  <sodipodi:namedview
     id="namedview7"
     pagecolor="#505050"
     bordercolor="#eeeeee"
     borderopacity="1"
     inkscape:pageshadow="0"
     inkscape:pageopacity="0"
     inkscape:pagecheckerboard="0"
     inkscape:document-units="mm"
     showgrid="false"
     inkscape:zoom="0.74029882"
     inkscape:cx="378.22565"
     inkscape:cy="834.79803"
     inkscape:window-width="1920"
     inkscape:window-height="1017"
     inkscape:window-x="1912"
     inkscape:window-y="-8"
     inkscape:window-maximized="1"
     inkscape:current-layer="g1044" />
  <defs
     id="defs2" />
  <g
     inkscape:label="Layer 1"
     inkscape:groupmode="layer"
     id="layer1">
    <g
       id="g1044"
       transform="matrix(0.26458333,0,0,0.26458333,29.837063,78.800965)">
      <g
         id="g1686"
         transform="matrix(1.5434893,0,0,1.5434893,-110.71435,-171.55235)">
        <ellipse
           style="fill:#3b82f6;fill-opacity:1"
           id="circle913"
           ry="256"
           rx="255.99875"
           cy="256"
           cx="256" />
        <path
           style="fill:#ffdc8d"
           d="m 456.234,415.504 c -20.522,25.736 -45.902,47.428 -74.762,63.687 -18.725,10.553 -38.902,18.808 -60.155,24.398 h -10.7 c -21.337,0 -42.339,-5.141 -61.252,-14.994 L 137.634,430.331 113.027,416.8 86.204,402.046 221.518,395.777 c 15.287,0 11.494,-37.491 11.494,-52.767 l 73.153,-126.872 90.885,90.885 c 12.413,12.413 22.121,27.052 28.714,42.977 6.593,15.924 10.083,33.134 10.083,50.698 z"
           id="path915" />
        <g
           id="g921">
	<path
   style="fill:#f2ce86"
   d="m 381.471,479.19 c -18.725,10.553 -38.902,18.808 -60.155,24.398 h -10.7 c -21.337,0 -42.339,-5.141 -61.252,-14.994 L 137.633,430.33 113.026,416.799 269.708,428.617 c 0,0 30.313,50.573 111.741,50.573 0.012,0 0.012,0 0.022,0 z"
   id="path917" />

	<path
   style="fill:#f2ce86"
   d="M 86.727,165.064 H 71.428 c -0.757,-0.047 -1.513,-0.084 -2.258,-0.084 -8.023,0 -16.033,3.063 -22.158,9.188 -12.238,12.237 -12.238,32.077 0,44.315 l 17.246,17.258 c -6.749,0.793 -13.283,3.771 -18.459,8.947 -12.238,12.238 -12.238,32.09 0,44.328 l 9.055,9.055 c 2.619,2.619 5.585,4.684 8.768,6.173 0.208,-0.147 0.425,-0.274 0.636,-0.414 v 0.689 c -0.211,-0.094 -0.427,-0.176 -0.636,-0.275 -1.526,1.032 -2.979,2.234 -4.335,3.591 -12.238,12.249 -12.238,32.09 0,44.328 l 9.055,9.056 c 0.985,0.973 2.018,1.872 3.087,2.69 v -24.035 h 15.298 z"
   id="path919" />

</g>
        <path
           style="fill:#5c5e70"
           d="M 278.504,0.001 H 99.105 c -15.287,0 -27.681,12.379 -27.681,27.667 v 373.293 c 0,15.273 12.395,27.653 27.681,27.653 h 170.604 c -14.837,-18.379 -18.888,-42.559 -12.181,-64.129 l 37.562,-106.122 11.081,11.081 V 27.668 C 306.17,12.38 293.791,0.001 278.504,0.001"
           id="path923" />
        <path
           style="fill:#f9eed7"
           d="m 214.047,226.367 c -6.781,6.771 -10.167,15.632 -10.167,24.513 0,8.882 3.385,17.753 10.167,24.534 l 39.936,39.936 c 10.491,10.491 13.563,26.488 7.178,39.863 -1.442,3.009 -2.654,6.123 -3.636,9.268 H 82.516 V 56.581 H 295.1 v 201.791 l -32.005,-32.005 c -13.542,-13.553 -35.506,-13.553 -49.048,0 z"
           id="path925" />
        <path
           style="fill:#494b5b"
           d="m 210.704,397.396 c 0,8.129 -4.42,15.224 -11.003,18.986 1.849,-3.208 2.905,-6.917 2.905,-10.888 0,-12.1 -9.801,-21.911 -21.901,-21.911 -3.971,0 -7.69,1.055 -10.898,2.915 3.762,-6.583 10.867,-11.013 18.996,-11.013 12.1,-0.001 21.901,9.811 21.901,21.911 z"
           id="path927" />
        <path
           style="fill:#f2ce86"
           d="m 347.529,294.198 -27.44,-27.44 v -36.697 l -13.919,-13.92 v 53.299 l 33.058,33.058 c 3.698,3.697 10.02,1.079 10.02,-4.15 0,-1.556 -0.619,-3.049 -1.719,-4.15 z"
           id="path929" />
        <path
           style="fill:#ffffff"
           d="m 260.776,273.413 v -13.538 h 13.537 v 13.538 h -13.537 m -51.027,-23.954 v -13.537 h 13.537 v 13.537 13.538 h -13.537 v -13.538 m 37.49,0 v -13.537 h 13.538 v 13.537 h -13.538 m -5.353,-33.099 v 3.009 h -13.537 v -1.633 c -5.235,1.609 -10.164,4.485 -14.307,8.627 -1.748,1.748 -3.272,3.636 -4.568,5.628 v 3.659 h -2.076 c -2.344,4.79 -3.515,10.009 -3.515,15.237 0,8.875 3.387,17.751 10.16,24.525 l 39.944,39.943 c 10.485,10.484 13.559,26.482 7.17,39.861 -1.442,3.015 -2.654,6.125 -3.627,9.271 h -30.649 v 10e-4 h 30.646 c -6.705,21.57 -2.654,45.749 12.181,64.129 h 5.878 c 16.812,0 30.456,-13.566 30.582,-30.348 V 269.443 l -11.08,-11.077 -20.777,-20.779 v 11.875 h -13.537 v -13.537 h 11.875 l -9.561,-9.561 c -5.921,-5.931 -13.461,-9.266 -21.202,-10.004 M 295.09,56.577 H 179.866 V 56.58 H 295.09 v -0.003"
           id="path931" />
        <g
           id="g959">
	<rect
   x="128.345"
   y="127.446"
   style="fill:#5c5e70"
   width="13.537"
   height="13.538"
   id="rect933" />

	<rect
   x="128.345"
   y="234.82001"
   style="fill:#5c5e70"
   width="13.537"
   height="13.537"
   id="rect935" />

	<path
   style="fill:#5c5e70"
   d="m 210.662,102.385 v 63.652 h 63.651 V 102.385 Z M 258.7,150.424 H 226.274 V 117.998 H 258.7 Z"
   id="path937" />

	<rect
   x="235.71899"
   y="127.446"
   style="fill:#5c5e70"
   width="13.538"
   height="13.537"
   id="rect939" />

	<polygon
   style="fill:#5c5e70"
   points="209.105,208.574 195.567,208.574 195.567,208.204 195.567,194.668 182.031,194.668 182.031,208.204 182.031,221.741 195.567,221.741 195.567,222.112 195.567,235.649 209.105,235.649 209.105,222.112 "
   id="polygon941" />

	<polygon
   style="fill:#5c5e70"
   points="274.313,177.445 260.776,177.445 247.239,177.445 247.239,190.982 260.776,190.982 274.313,190.982 "
   id="polygon943" />

	<rect
   x="182.397"
   y="235.91701"
   style="fill:#5c5e70"
   width="13.537"
   height="13.537"
   id="rect945" />

	<rect
   x="168.49001"
   y="181.133"
   style="fill:#5c5e70"
   width="13.538"
   height="13.538"
   id="rect947" />

	<rect
   x="260.49301"
   y="206.681"
   style="fill:#5c5e70"
   width="13.538"
   height="13.538"
   id="rect949" />

	<polygon
   style="fill:#5c5e70"
   points="241.886,192.294 228.35,192.294 228.35,178.757 214.812,178.757 201.276,178.757 201.276,192.294 214.812,192.294 214.812,205.831 228.35,205.831 228.35,219.368 241.886,219.368 241.886,205.831 "
   id="polygon951" />

	<path
   style="fill:#5c5e70"
   d="m 134.511,181.13 v 13.538 h 13.537 V 181.13 166.036 h 18.889 v -63.651 h -63.651 v 63.652 h 31.226 v 15.093 z m -15.613,-63.133 h 32.426 v 32.426 h -32.426 z"
   id="path953" />

	<path
   style="fill:#5c5e70"
   d="m 116.823,181.13 h -13.538 v 28.631 5.77 57.882 h 63.651 V 209.761 H 116.822 V 181.13 Z m 2.075,44.243 h 32.426 v 32.426 h -32.426 z"
   id="path955" />

	<polygon
   style="fill:#5c5e70"
   points="195.567,127.442 182.031,127.442 182.031,140.979 182.031,154.516 182.031,168.053 195.567,168.053 195.567,154.516 195.567,140.979 "
   id="polygon957" />

</g>
        <path
           style="fill:#ffdc8d"
           d="m 295.097,258.368 -32.005,-32.006 c -13.535,-13.546 -35.5,-13.546 -49.048,0 -6.773,6.774 -10.161,15.637 -10.161,24.524 0,8.875 3.387,17.75 10.161,24.524 l 39.944,39.944 c 10.485,10.484 13.559,26.481 7.17,39.86 -1.441,3.015 -2.654,6.125 -3.627,9.271 -6.713,21.57 -2.654,45.745 12.178,64.132 l 13.457,14.703 c 15.288,0 40.751,-19.205 40.751,-34.482 L 306.17,269.44 Z"
           id="path961" />
        <path
           style="fill:#f9eed7"
           d="m 255.284,236.829 c -8.17,-8.17 -21.416,-8.17 -29.586,0 -8.17,8.17 -8.17,21.416 0,29.586 8.17,8.17 15.225,1.978 23.395,-6.192 8.169,-8.169 14.361,-15.224 6.191,-23.394 z"
           id="path963" />
        <circle
           style="fill:#fcf8f2"
           cx="247.29601"
           cy="244.088"
           r="4.8769999"
           id="circle965" />
      </g>
      <g
         id="g967">
</g>
      <g
         id="g969">
</g>
      <g
         id="g971">
</g>
      <g
         id="g973">
</g>
      <g
         id="g975">
</g>
      <g
         id="g977">
</g>
      <g
         id="g979">
</g>
      <g
         id="g981">
</g>
      <g
         id="g983">
</g>
      <g
         id="g985">
</g>
      <g
         id="g987">
</g>
      <g
         id="g989">
</g>
      <g
         id="g991">
</g>
      <g
         id="g993">
</g>
      <g
         id="g995">
</g>
    </g>
  </g>
</svg>
