<?xml version="1.0" standalone="no"?>
<!DOCTYPE svg PUBLIC "-//W3C//DTD SVG 20010904//EN"
 "http://www.w3.org/TR/2001/REC-SVG-20010904/DTD/svg10.dtd">
<svg version="1.0" xmlns="http://www.w3.org/2000/svg"
 width="600.000000pt" height="600.000000pt" viewBox="0 0 600.000000 600.000000"
 preserveAspectRatio="xMidYMid meet">
<metadata>
Created by potrace 1.11, written by Peter Selinger 2001-2013
</metadata>
<g transform="translate(0.000000,600.000000) scale(0.100000,-0.100000)"
fill="#000000" stroke="none">
<path d="M0 3000 l0 -3000 3000 0 3000 0 0 3000 0 3000 -3000 0 -3000 0 0
-3000z m777 1476 l267 -234 346 -1283 346 -1284 377 -3 c207 -1 377 -5 377 -9
0 -4 -21 -87 -47 -185 l-48 -178 -487 0 -487 0 -15 53 c-9 28 -214 790 -456
1692 -242 902 -443 1646 -445 1653 -2 6 -2 12 1 12 2 0 125 -105 271 -234z
m4718 222 c-3 -7 -214 -749 -470 -1648 -256 -899 -475 -1666 -486 -1704 l-21
-68 -176 6 c-97 3 -303 9 -457 12 l-281 6 -50 184 -51 184 381 2 381 3 340
1260 339 1260 274 258 c150 141 275 257 277 257 3 0 2 -6 0 -12z m-1829 -953
l300 -690 -22 -95 c-12 -52 -39 -168 -60 -257 -21 -90 -40 -160 -43 -158 -3 3
-111 423 -241 933 l-236 927 -351 3 c-328 2 -352 1 -357 -15 -3 -10 -114 -423
-246 -918 -132 -495 -243 -909 -248 -919 -6 -13 -24 52 -60 215 -29 129 -52
240 -52 248 0 8 131 316 291 685 161 369 298 686 305 704 l14 32 352 -2 353
-3 301 -690z"/>
</g>
</svg>
